HIERARCHY
ROOT Hips
{
  OFFSET -315.163 89.9075 301.004
  CHANNELS 6 Xposition Yposition Zposition Zrotation Xrotation Yrotation
  JOINT ToSpine
  {
    OFFSET -0.0105055 1.38907 -7.13956
    CHANNELS 3 Zrotation Xrotation Yrotation
    JOINT Spine
    {
      OFFSET 0.0105055 10 1
      CHANNELS 3 Zrotation Xrotation Yrotation
      JOINT Spine1
      {
        OFFSET 0 12 1.60637
        CHANNELS 3 Zrotation Xrotation Yrotation
        JOINT Neck
        {
          OFFSET 0 27 2.26658
          CHANNELS 3 Zrotation Xrotation Yrotation
          JOINT Head
          {
            OFFSET 0 9 2.12705
            CHANNELS 3 Zrotation Xrotation Yrotation
            End Site
            {
              OFFSET 0 11 2
            }
          }
        }
        JOINT LeftShoulder
        {
          OFFSET 8 19.6109 2.86452
          CHANNELS 3 Zrotation Xrotation Yrotation
          JOINT LeftArm
          {
            OFFSET 12 1 0.681055
            CHANNELS 3 Zrotation Xrotation Yrotation
            JOINT LeftForeArm
            {
              OFFSET 19 0 -1.52608
              CHANNELS 3 Zrotation Xrotation Yrotation
              JOINT LeftHand
              {
                OFFSET 23 0 0
                CHANNELS 3 Zrotation Xrotation Yrotation
                End Site
                {
                  OFFSET 10 0 0
                }
              }
            }
          }
        }
        JOINT RightShoulder
        {
          OFFSET -8 19.6109 2.86452
          CHANNELS 3 Zrotation Xrotation Yrotation
          JOINT RightArm
          {
            OFFSET -12 1 0.681055
            CHANNELS 3 Zrotation Xrotation Yrotation
            JOINT RightForeArm
            {
              OFFSET -19 0 -1.52608
              CHANNELS 3 Zrotation Xrotation Yrotation
              JOINT RightHand
              {
                OFFSET -23 0 0
                CHANNELS 3 Zrotation Xrotation Yrotation
                End Site
                {
                  OFFSET -10 0 0
                }
              }
            }
          }
        }
      }
    }
  }
  JOINT LeftUpLeg
  {
    OFFSET 9 -7.17245 0
    CHANNELS 3 Zrotation Xrotation Yrotation
    JOINT LeftLeg
    {
      OFFSET 0 -44.1113 0
      CHANNELS 3 Zrotation Xrotation Yrotation
      JOINT LeftFoot
      {
        OFFSET 0 -36.1829 0
        CHANNELS 3 Zrotation Xrotation Yrotation
        JOINT LeftToeBase
        {
          OFFSET 0 -4.84184 13
          CHANNELS 3 Zrotation Xrotation Yrotation
          End Site
          {
            OFFSET 0 1 6
          }
        }
      }
    }
  }
  JOINT RightUpLeg
  {
    OFFSET -9 -7.17245 0
    CHANNELS 3 Zrotation Xrotation Yrotation
    JOINT RightLeg
    {
      OFFSET 0 -44.0551 0
      CHANNELS 3 Zrotation Xrotation Yrotation
      JOINT RightFoot
      {
        OFFSET 0 -36.1469 0
        CHANNELS 3 Zrotation Xrotation Yrotation
        JOINT RightToeBase
        {
          OFFSET 0 -4.92256 13
          CHANNELS 3 Zrotation Xrotation Yrotation
          End Site
          {
            OFFSET 0 1 6
          }
        }
      }
    }
  }
}
MOTION
Frames:	14
Frame Time:	0.0333333
-314.502 89.9398 300.388 7.36609 0.0176733 138.919 0 0 0 -2.7068 1.41979 -2.87763 6.29511 6.70846 -4.5204 13.77 3.85969 -3.06721 -1.78387 -0.363009 1.89867 -31.7187 3.87306 -6.72957 -34.4338 18.9683 -31.6994 -5.22227 -12.1482 0.846244 -7.52467 0.166686 -2.53065 27.2002 5.60887 13.223 51.7355 6.10733 -5.38961 -0.162871 5.36597 12.4628 -4.97928 -0.650889 15.3652 5.96704 26.9412 12.472 -2.0719 9.24855 -27.0373 -0.44163 -27.3574 -0.115063 -1.71237 13.5392 2.45438 8.7523 -20.0456 1.83813 2.11698 16.6362 -3.25879 -18.445 9.96738 1.629 4.83301 -18.522 -4.32864 
-312.357 90.2402 298.256 7.4295 -0.347529 139.629 0 0 0 -2.20348 -0.13171 -3.22737 6.27156 7.84745 -4.94727 13.2112 2.96075 -2.51807 -1.30566 0.956756 2.06436 -31.4597 3.7448 -6.45057 -35.672 19.8181 -30.5299 -5.6766 -11.8349 3.59944 -7.67899 0.131165 -1.97535 26.5541 5.27426 12.5315 52.7731 7.19933 -4.71422 2.52286 -1.71294 7.89948 -2.68952 -0.222186 7.31991 6.96364 25.3462 11.8563 -0.591714 14.4091 -27.8717 -5.16704 -26.3333 -1.19443 -1.7572 13.1367 2.67819 8.92974 -19.9323 -0.304259 1.72118 20.1177 -1.8448 -17.2706 7.81821 1.18677 4.33782 -16.4493 -4.45601 
-309.362 90.7086 295.524 8.09739 0.0613401 139.097 0 0 0 -0.738719 -0.0768861 -2.88638 4.14472 7.67058 -4.19539 14.8422 3.20482 -2.84879 -2.34075 1.09552 2.55136 -29.2962 3.7326 -7.04625 -39.2452 20.4413 -26.8182 -6.29792 -12.5949 4.82196 -8.82134 0.163403 -2.05816 27.5626 5.45091 12.5666 52.7684 7.52283 -4.69188 3.63079 -6.7773 5.10464 1.15133 0.0879218 1.97026 8.14116 23.0948 10.8997 0.459066 23.8945 -27.8891 -8.34024 -22.4076 -1.65225 -2.00909 12.5786 3.54844 9.62267 -17.7685 -2.09735 0.963676 23.35 0.170714 -17.8543 4.36875 0.683379 4.11926 -15.5382 -4.62872 
-306.671 91.3071 292.964 8.58429 1.17112 138.202 0 0 0 0.128905 1.38839 -2.4193 2.8016 5.8877 -3.4763 14.1699 5.62602 -3.30973 -2.4356 -0.532135 2.11773 -29.9644 3.8498 -7.18066 -40.4614 21.5362 -21.2277 -6.52321 -13.18 4.67554 -10.3978 0.257797 -2.84581 27.4601 5.85844 13.8506 52.7412 6.75667 -5.89178 3.71203 -8.86487 6.22427 4.42799 0.168077 4.68724 8.67456 19.6294 8.95752 0.0625022 35.2065 -26.6681 -6.5368 -14.9419 -0.907438 -2.6819 12.2177 5.6295 9.48123 -14.3135 -3.52597 0.490158 24.5503 1.93446 -18.6271 1.06311 0.173516 4.08472 -15.3988 -4.80776 
-304.33 91.9928 290.553 8.03947 1.26718 138.638 0 0 0 1.20137 0.712448 -2.25789 1.47944 6.11329 -3.19607 12.6048 5.12483 -3.07839 -1.81114 -0.36467 1.62464 -30.6048 3.78284 -6.79771 -41.2865 21.7231 -17.2439 -6.05127 -12.1862 4.81802 -10.5433 0.277284 -3.00853 26.3309 5.61581 13.6717 53.305 7.0622 -5.22588 3.51778 -7.75618 8.34441 3.36307 0.102008 3.11101 9.43689 12.5991 7.4862 0.000164157 46.8328 -25.7353 -6.71012 -6.01486 -0.303232 -2.84155 13.5387 5.6435 8.7514 -11.7871 -5.14026 0.597143 23.7557 2.72074 -18.845 -0.935249 -0.1536 4.12531 -15.5485 -4.41859 
-302.177 92.3924 288.613 8.18185 0.900022 139.236 0 0 0 3.28757 0.914383 -1.75203 -0.559158 5.90134 -2.2675 13.3122 4.58185 -3.62552 -2.38994 -0.97216 1.39115 -29.7268 3.77686 -7.02395 -43.3648 20.5086 -13.3335 -5.25287 -11.9382 3.6133 -10.3049 0.285716 -3.17644 26.7723 5.55006 13.2536 52.6549 7.60321 -4.16148 3.39621 -6.94004 10.2384 2.95026 0.0871481 3.10154 11.2536 5.42334 7.0044 -0.0192545 56.9519 -24.5474 -7.31405 -4.36072 -0.28966 -2.47534 15.2259 4.18525 9.32016 -9.24383 -4.66473 0.972414 22.2884 1.31457 -18.7163 -2.37455 -0.391591 4.18247 -15.751 -3.87595 
-300.284 92.7419 286.718 8.4234 1.31571 139.429 0 0 0 4.58307 2.30779 -1.1881 -1.34385 5.09238 -1.31415 12.3324 5.45175 -3.96382 -1.97662 -2.3764 0.694065 -30.87 3.76802 -6.68069 -43.4659 20.0209 -9.18389 -4.68558 -12.8479 0.659431 -9.65084 0.19204 -2.24736 26.9119 5.74312 13.7607 51.4249 8.03309 -3.54336 3.31934 -6.82959 11.4642 2.43654 0.098604 4.82908 11.6587 -0.275285 6.58653 0.0627529 63.799 -21.9868 -3.56505 -10.286 -0.287465 -2.42263 16.3035 3.75719 9.35506 -6.28885 -3.73069 1.44326 21.1339 -0.217478 -18.7612 -3.63325 -0.60071 4.22639 -15.9181 -3.69551 
-298.514 93.2755 284.771 8.06559 2.19943 139.328 0 0 0 5.3611 3.84459 -0.510379 -2.85373 4.5585 -0.0789477 12.4182 4.63441 -4.65946 -2.16035 -1.91148 -0.00639628 -30.4723 3.51768 -6.09743 -44.3851 18.8422 -6.61742 -4.34271 -14.3735 -1.83499 -10.2664 0.228423 -2.44587 26.6487 5.63267 13.5592 50.6634 8.9317 -1.43328 3.30618 -6.42598 11.9166 1.49172 0.0532651 4.22181 10.3505 -5.50534 6.10945 0.00825119 66.3981 -17.2723 0.537419 -14.8845 0.0599582 -2.82027 16.6213 4.7339 8.48158 -2.88246 -2.99855 1.88135 18.91 -0.984065 -18.4516 -4.45523 -0.723375 4.11152 -15.4535 -3.64907 
-296.723 93.7709 282.733 7.35038 2.71632 139.506 0 0 0 6.43571 4.27266 0.156839 -5.28557 4.34053 1.24509 14.1192 4.9791 -5.90058 -3.20751 -2.14776 -0.413777 -28.6396 3.45073 -6.42866 -46.2364 16.2973 -4.37215 -3.99469 -15.7194 -3.16538 -11.3884 0.365783 -3.69833 26.8297 5.52969 13.1722 49.7166 9.78946 0.901458 3.50529 -6.71428 11.9818 0.653 0.0270653 4.31272 8.4594 -10.7533 5.18622 0.00548306 65.5297 -11.8972 2.96557 -17.4868 0.456367 -3.15324 17.0634 5.50061 7.51545 0.382492 -2.92906 2.11201 15.8675 -0.965921 -18.2295 -4.66284 -0.74831 4.38542 -16.681 -5.13296 
-295.022 94.0616 280.716 6.58849 3.15259 138.78 0 0 0 7.50083 4.69443 1.09994 -7.25472 4.29663 2.74699 14.0618 5.10248 -6.42839 -3.48565 -2.2143 -0.89389 -27.8916 3.55769 -6.93346 -47.1179 15.2853 -2.37659 -3.78209 -15.4842 -5.12808 -10.6218 0.271377 -2.89105 26.0632 5.22445 12.5998 48.7819 9.12834 3.76924 1.80152 -0.669008 12.2196 3.84359 0.0668133 3.41145 6.37091 -15.0242 4.84381 -0.109979 61.1515 -6.12212 4.36081 -18.6376 0.711814 -3.4492 17.4705 6.1579 6.61994 3.10218 -3.45442 1.79869 13.712 0.424056 -18.5832 -5.2518 -0.860923 4.34409 -16.4689 -4.98631 
-293.311 94.1251 278.556 5.74473 3.46284 138.243 0 0 0 8.15947 5.39513 1.50404 -7.90944 3.89879 3.43368 11.3226 4.47208 -5.54085 -2.12022 -1.66752 -1.27493 -28.9906 3.47419 -6.3837 -46.5719 16.0647 -0.434432 -3.90375 -15.6557 -7.42009 -10.3099 0.226563 -2.51154 24.1696 4.84299 12.3358 48.6838 9.31634 6.90503 1.09785 1.90229 12.1817 4.61668 0.0881228 2.52517 3.99599 -18.3721 3.31241 -0.0436874 53.7235 -2.23491 2.92533 -18.251 0.472402 -4.04551 17.0559 7.86145 5.79834 5.36002 -4.37473 1.21097 12.4446 1.61139 -18.7822 -6.75965 -1.12125 4.10267 -15.4524 -4.229 
-291.439 93.9778 276.126 5.23848 3.38139 137.893 0 0 0 9.71906 5.23748 1.73658 -8.93926 4.2269 4.00015 8.35719 4.16902 -4.56324 -0.32485 -1.41919 -1.68652 -30.0898 3.42295 -5.94617 -45.7855 16.8381 0.877985 -4.17619 -16.5311 -8.49821 -10.3601 0.267648 -2.95188 23.0763 4.72977 12.5044 47.9955 10.8598 9.04949 2.09582 -2.77705 13.5013 1.02899 0.0213391 2.2054 2.35336 -20.5786 1.96183 0.0249505 44.131 -2.12548 1.07853 -16.8415 0.157887 -4.16712 18.2523 7.7794 5.48266 7.59174 -5.11711 0.464103 11.5466 2.12926 -17.7436 -9.12626 -1.4172 3.85626 -14.3105 -3.36903 
-289.537 93.4656 273.62 5.00376 3.47712 137.503 0 0 0 11.4996 5.75983 1.89294 -10.161 4.04966 4.46593 5.38463 3.93554 -3.62474 1.02934 -1.56068 -2.04033 -31.243 3.38897 -5.56974 -45.0056 17.6796 1.63289 -4.42654 -17.1043 -8.97497 -10.2942 0.252769 -2.80611 21.986 4.61597 12.6863 47.0941 11.8374 11.5829 2.5889 -4.81384 14.4716 0.829714 0.00939658 1.74866 0.994649 -21.4213 1.69131 0.17299 32.8142 -5.2192 1.11949 -13.592 0.132759 -4.36263 19.123 8.01161 5.14161 10.01 -5.94571 0.12069 11.0026 2.89612 -18.3602 -10.7972 -1.75169 3.95432 -14.7187 -2.53572 
-287.41 92.6673 270.915 4.65035 3.60718 137.588 0 0 0 12.5746 5.88528 2.05732 -10.8131 3.68972 4.71955 4.01846 4.16438 -3.56024 0.0867947 -2.28681 -2.22591 -32.0526 3.41053 -5.43209 -45.0515 17.6234 2.53086 -4.40644 -17.0288 -8.77118 -10.3973 0.256237 -2.8156 21.496 4.54186 12.7007 45.8784 12.6217 13.4362 2.95103 -6.04723 14.9169 -0.227641 -0.00288238 1.98142 -0.473337 -21.2762 1.45781 -0.540263 20.678 -8.69187 1.15882 -9.96149 0.100787 -4.78678 19.2312 9.04754 4.77553 12.5647 -6.88826 0.20578 10.4053 3.712 -20.623 -11.6288 -2.1267 4.67053 -17.8769 -4.55595 
